<svg xmlns="http://www.w3.org/2000/svg" width="19.692" height="16" viewBox="0 0 19.692 16">
  <path id="Path_65" data-name="Path 65" d="M4.063,3A3.952,3.952,0,0,1,7.877,0h3.938a3.9,3.9,0,0,1,2.412.838A4.005,4.005,0,0,1,15.63,3h.124a3.907,3.907,0,0,1,2.785,1.172A4.033,4.033,0,0,1,19.692,7v5a4.033,4.033,0,0,1-1.153,2.828A3.907,3.907,0,0,1,15.754,16H3.938a3.9,3.9,0,0,1-2.784-1.172A4.029,4.029,0,0,1,0,12V7A4.029,4.029,0,0,1,1.154,4.172,3.9,3.9,0,0,1,3.938,3ZM9.846,13a3.9,3.9,0,0,0,2.785-1.172,4.042,4.042,0,0,0,0-5.656,3.895,3.895,0,0,0-5.57,0,4.045,4.045,0,0,0,0,5.656A3.907,3.907,0,0,0,9.846,13Zm5.908-5a.976.976,0,0,0,.7-.293,1.009,1.009,0,0,0,0-1.414.973.973,0,0,0-1.392,0,1.009,1.009,0,0,0,0,1.414A.974.974,0,0,0,15.754,8ZM9.846,11a1.953,1.953,0,0,1-1.392-.586,2.021,2.021,0,0,1,0-2.828,1.947,1.947,0,0,1,2.785,0,2.024,2.024,0,0,1,0,2.828A1.957,1.957,0,0,1,9.846,11Z" fill="#5586ff"/>
</svg>
