<svg id="eye" xmlns="http://www.w3.org/2000/svg" width="23.24" height="18" viewBox="0 0 23.24 18">
  <path id="Path_542" data-name="Path 542" d="M342.63,1698.85a4,4,0,1,1-4-4A4.005,4.005,0,0,1,342.63,1698.85Zm-4-2a2,2,0,1,0,2,2A1.993,1.993,0,0,0,338.63,1696.85Z" transform="translate(-327.01 -1689.85)" fill="#54585d" fill-rule="evenodd"/>
  <path id="Path_543" data-name="Path 543" d="M338.63,1689.85a9.3,9.3,0,1,1-11.62,9A12,12,0,0,1,338.63,1689.85Zm9.54,9a10.008,10.008,0,1,0-9.54,7A10,10,0,0,0,348.17,1698.85Z" transform="translate(-327.01 -1689.85)" fill="#54585d" fill-rule="evenodd"/>
</svg>
