<svg xmlns="http://www.w3.org/2000/svg" width="15.003" height="20" viewBox="0 0 15.003 20">
  <path id="Shape_2" data-name="Shape 2" d="M1759.5,763.632a3.181,3.181,0,0,0,3.223-3.158l.01-6.316a3.234,3.234,0,0,0-6.466,0v6.316a3.19,3.19,0,0,0,3.233,3.158m6.637-3.158a1.06,1.06,0,0,0-1,.906,5.8,5.8,0,0,1-11.281,0,1.06,1.06,0,0,0-1-.906.826.826,0,0,0-.856.908,7.4,7.4,0,0,0,4.855,5.769,2.233,2.233,0,0,1,1.561,2v.781a1.078,1.078,0,0,0,2.155,0v-.779a2.232,2.232,0,0,1,1.561-2,7.4,7.4,0,0,0,4.855-5.771.826.826,0,0,0-.856-.908" transform="translate(-1751.997 -751)" fill="#5586ff"/>
</svg>
