<svg width="82" height="83" viewBox="0 0 82 83" fill="none" xmlns="http://www.w3.org/2000/svg">
<path d="M78.6246 50.5478L75.8416 48.8813C76.9035 48.2518 77.819 47.6963 78.6246 47.2148C80.6385 45.9927 81.8103 43.9189 81.8103 41.6599C81.8103 39.3638 80.6019 37.2899 78.6246 36.1049L75.8416 34.4384C76.9035 33.8088 77.819 33.2533 78.6246 32.7719C80.6385 31.5498 81.8103 29.4759 81.8103 27.2169C81.8103 24.9209 80.6019 22.847 78.6246 21.6619C69.7631 16.3292 53.6881 6.70051 45.4125 1.8862C42.9225 0.441905 39.9198 0.441905 37.32 1.8862C37.0637 2.03433 12.3469 16.7365 4.14454 21.6249C2.13057 22.81 0.95874 24.9209 0.95874 27.1799C0.95874 29.4759 2.16719 31.5498 4.14454 32.7349C4.95012 33.2163 5.90213 33.7718 6.92742 34.4014L4.14454 36.0679C2.13057 37.2529 0.95874 39.3638 0.95874 41.6228C0.95874 43.9189 2.16719 45.9927 4.14454 47.1778C4.95012 47.6592 5.90213 48.2147 6.92742 48.8443L4.14454 50.5108C2.13057 51.6959 0.95874 53.8068 0.95874 56.0658C0.95874 58.3618 2.16719 60.4357 4.14454 61.6208C13.006 66.9535 29.0811 76.5822 37.3566 81.3965C38.6016 82.1001 39.9931 82.5075 41.3846 82.5075C42.776 82.5075 44.2041 82.1372 45.4125 81.3965C54.2007 76.3229 71.5574 65.8796 78.6246 61.6208C80.6385 60.3987 81.8103 58.3248 81.8103 56.0658C81.8103 53.8438 80.6019 51.7699 78.6246 50.5478ZM75.6585 27.7354C66.8337 33.0311 50.7952 42.6597 42.5196 47.437C41.7873 47.8444 40.9085 47.8444 40.1762 47.437C32.4865 42.993 17.9127 34.2532 7.03729 27.7354C6.89082 27.6613 6.67111 27.4762 6.67111 27.1799C6.67111 26.8836 6.89082 26.6985 7.03729 26.6244C13.8848 22.5137 32.1569 11.663 39.7001 7.18196C39.8466 7.1079 39.993 6.99678 40.1395 6.88568C40.9085 6.44128 41.7507 6.44128 42.4831 6.88568C51.5642 12.1444 70.1293 23.3284 75.622 26.5874C75.7684 26.6614 75.9881 26.8466 75.9881 27.1429C76.0248 27.4762 75.805 27.6613 75.6585 27.7354ZM41.3846 53.6216C42.776 53.6216 44.2041 53.2513 45.4125 52.5106C51.6009 48.9184 62.1833 42.6227 70.1659 37.8084L75.6585 41.1044C75.805 41.1784 76.0247 41.3636 76.0247 41.6599C76.0247 41.9561 75.805 42.1413 75.6585 42.2154C66.8337 47.5111 50.7952 57.1398 42.5196 61.917C41.7873 62.3244 40.9085 62.3244 40.1762 61.917C32.4865 57.4731 17.9127 48.7332 7.03729 42.2154C6.89082 42.1413 6.67111 41.9561 6.67111 41.6599C6.67111 41.3636 6.89082 41.1784 7.03729 41.1044L12.5299 37.8084C24.0278 44.6966 32.34 49.622 37.2834 52.5106C38.565 53.2513 39.9565 53.6216 41.3846 53.6216ZM7.07394 55.5843L12.5666 52.2884C24.0645 59.1766 32.3766 64.102 37.32 66.9906C38.565 67.6942 39.9564 68.0645 41.3479 68.0645C42.7394 68.0645 44.1675 67.6942 45.3758 66.9535C51.5642 63.3613 62.1467 57.0657 70.1293 52.2513L75.622 55.5473C75.7684 55.6214 75.9881 55.8065 75.9881 56.1028C75.9881 56.3991 75.7684 56.5842 75.622 56.6583C66.7605 61.9911 50.722 71.6197 42.4831 76.36C41.7507 76.7673 40.8719 76.7673 40.1395 76.36C34.0976 72.8418 22.6363 66.0277 7.00063 56.6583C6.85416 56.5842 6.63446 56.3991 6.63446 56.1028C6.70769 55.8436 6.92747 55.6584 7.07394 55.5843Z" fill="#424753"/>
</svg>
