<svg width="88" height="88" viewBox="0 0 88 88" fill="none" xmlns="http://www.w3.org/2000/svg">
<path d="M78.4245 32.7329H77.2162C76.7035 31.2516 76.1177 29.8073 75.4219 28.4001L76.2641 27.5483C77.8753 25.9188 78.7907 23.7339 78.7907 21.4008C78.7907 19.0677 77.9119 16.8827 76.2641 15.2533L72.5291 11.4759C70.918 9.84643 68.7575 8.9206 66.4506 8.9206C64.1437 8.9206 62.0199 9.8094 60.3721 11.4759L59.5299 12.3276C58.1384 11.624 56.7104 11.0315 55.2457 10.513V9.29093C55.2457 4.51365 51.4008 0.588135 46.6405 0.588135H41.331C36.6073 0.588135 32.7259 4.47662 32.7259 9.29093V10.513C31.2612 11.0315 29.8331 11.624 28.4416 12.3276L27.5994 11.4759C25.9882 9.84643 23.8278 8.9206 21.5209 8.9206C19.214 8.9206 17.0535 9.8094 15.4424 11.4759L11.7074 15.2533C10.0962 16.8827 9.18078 19.0677 9.18078 21.4008C9.18078 23.7339 10.0596 25.8818 11.7074 27.5483L12.5496 28.4001C11.8539 29.8073 11.268 31.2516 10.7554 32.7329H9.54696C4.82329 32.7329 0.941833 36.6214 0.941833 41.4357V46.8056C0.941833 51.5828 4.78668 55.5084 9.54696 55.5084H10.7554C11.268 56.9897 11.8539 58.471 12.5496 59.8412L11.7074 60.693C10.0962 62.3225 9.18078 64.5074 9.18078 66.8405C9.18078 69.1736 10.0596 71.3585 11.7074 72.988L15.4424 76.7654C17.0535 78.3949 19.214 79.3207 21.5209 79.3207C23.8278 79.3207 25.9516 78.4319 27.5994 76.7654L28.4416 75.9136C29.8331 76.6173 31.2612 77.2098 32.7259 77.7283V78.9504C32.7259 83.7276 36.5707 87.6532 41.331 87.6532H46.6405C51.3642 87.6532 55.2457 83.7647 55.2457 78.9504V77.7283C56.7104 77.2098 58.1384 76.6173 59.5299 75.9136L60.3721 76.7654C61.9833 78.3949 64.1437 79.3207 66.4506 79.3207H66.4872C68.7575 79.3207 70.918 78.3949 72.5291 76.7654L76.2641 72.988C77.8753 71.3585 78.7907 69.1736 78.7907 66.8405C78.7907 64.5074 77.9119 62.3595 76.2641 60.693L75.4219 59.8412C76.1177 58.434 76.7035 56.9897 77.2162 55.5084H78.4245C83.1482 55.5084 87.0297 51.6199 87.0297 46.8056V41.4357C87.0297 36.6214 83.1848 32.7329 78.4245 32.7329ZM71.5771 51.2866C70.918 53.8789 69.8927 56.3971 68.5378 58.6932C67.7688 60.0264 67.9886 61.6929 69.0505 62.7669L71.6503 65.3962C72.0165 65.7665 72.2362 66.285 72.2362 66.8035C72.2362 67.359 72.0165 67.8404 71.6503 68.2478L67.9153 72.0252C67.1464 72.8028 65.8648 72.8028 65.0958 72.0252L62.4959 69.3958C61.434 68.3218 59.7862 68.0996 58.468 68.8773C56.1611 70.2476 53.7077 71.2845 51.1445 71.9511C49.6798 72.3214 48.6545 73.6546 48.6545 75.173V78.8763C48.6545 79.9873 47.7757 80.8761 46.6772 80.8761H41.3676C40.2691 80.8761 39.3903 79.9873 39.3903 78.8763V75.173C39.3903 73.6546 38.365 72.3214 36.9003 71.9511C34.3371 71.2845 31.8471 70.2476 29.5768 68.8773C28.0755 67.9515 26.4277 68.507 25.5488 69.3958L22.949 72.0252C22.18 72.8028 20.8984 72.8028 20.1294 72.0252L16.3945 68.2478C16.0283 67.8774 15.8085 67.359 15.8085 66.8405C15.8085 66.285 16.0283 65.8036 16.3945 65.3962L18.9943 62.7669C20.0562 61.6929 20.2759 60.0264 19.507 58.6932C18.1521 56.3601 17.1268 53.8789 16.4677 51.2866C16.1015 49.8052 14.7833 48.7683 13.282 48.7683H9.62022C8.52169 48.7683 7.64286 47.8795 7.64286 46.7685V41.3987C7.64286 40.2877 8.52169 39.3989 9.62022 39.3989H13.282C14.7833 39.3989 16.1015 38.362 16.4677 36.8806C17.1268 34.2883 18.1521 31.7701 19.507 29.474C20.2759 28.1778 20.0562 26.5114 18.9943 25.4004L16.3945 22.771C16.0283 22.4007 15.8085 21.8822 15.8085 21.3267C15.8085 20.8082 16.0283 20.2898 16.3945 19.9195L20.1294 16.1421C20.8984 15.4014 22.18 15.3644 22.949 16.1421L25.5488 18.7714C26.6108 19.8454 28.2585 20.0676 29.5768 19.2899C31.8837 17.9197 34.3371 16.8827 36.9003 16.2161C38.365 15.8458 39.3903 14.5126 39.3903 12.9943V9.29093C39.3903 8.17994 40.2691 7.29114 41.3676 7.29114H46.6772C47.7757 7.29114 48.6545 8.17994 48.6545 9.29093V12.9943C48.6545 14.5126 49.6798 15.8458 51.1445 16.2161C53.7077 16.8827 56.1977 17.9197 58.468 19.2899C59.7862 20.0676 61.434 19.8454 62.4959 18.7714L65.0958 16.1421C65.462 15.7717 65.9746 15.5495 66.4872 15.5495C67.0365 15.5495 67.5125 15.7717 67.8787 16.1421L71.6137 19.9195C72.3827 20.6971 72.3827 21.9933 71.6137 22.771L69.0139 25.4004C67.9519 26.4743 67.7322 28.1408 68.5012 29.474C69.856 31.8071 70.8814 34.2883 71.5405 36.8806C71.9066 38.362 73.2249 39.3989 74.7262 39.3989H78.3879C79.4865 39.3989 80.3653 40.2877 80.3653 41.3987V46.7685C80.3653 47.8795 79.4865 48.7683 78.3879 48.7683H74.7262C73.2615 48.8053 71.9799 49.8052 71.5771 51.2866Z" fill="#424753"/>
<path d="M44.0407 24.6967C33.4582 24.6967 24.8531 33.3995 24.8531 44.1021C24.8531 54.8047 33.4582 63.5075 44.0407 63.5075C54.6232 63.5075 63.2283 54.8047 63.2283 44.1021C63.2283 33.3995 54.5866 24.6967 44.0407 24.6967ZM56.6005 44.1021C56.6005 51.1014 50.9614 56.8045 44.0041 56.8045C37.0833 56.8045 31.4077 51.1014 31.4077 44.1021C31.4077 37.1028 37.0467 31.3627 44.0041 31.3627C50.9614 31.3627 56.6005 37.1028 56.6005 44.1021Z" fill="#424753"/>
</svg>
