<svg width="87" height="59" viewBox="0 0 87 59" fill="none" xmlns="http://www.w3.org/2000/svg">
<path d="M85.0529 4.47699C84.284 3.92149 83.332 3.81038 82.4531 4.14368L68.2821 9.3654C66.2315 10.1061 64.6204 11.6244 63.7049 13.6242C63.7049 13.6612 63.6683 13.6983 63.6683 13.6983C61.215 12.9576 57.2603 11.5874 53.4154 9.58759C47.2637 6.40273 41.771 6.88416 36.0953 11.1059C33.9349 11.18 31.1153 11.4022 27.9662 11.6985C26.5381 11.8096 25.0734 11.9577 23.7552 12.0688C23.6454 11.4022 23.4257 10.7356 23.1327 10.1431C22.2173 8.14329 20.6061 6.66197 18.5555 5.88427L4.38453 0.662597C3.50571 0.329299 2.55366 0.477395 1.78469 0.99586C1.01572 1.51432 0.576294 2.40314 0.576294 3.32897V38.4735C0.576294 40.0659 1.85793 41.325 3.39587 41.325H8.48572C10.5729 41.325 12.5869 40.4733 14.0882 39.029C14.5642 39.3993 15.1135 39.8067 15.6627 40.214L15.9923 40.4733C17.933 41.9546 19.9104 43.473 20.8258 44.2136C27.3071 49.6945 35.1433 55.6569 36.7178 56.7308C38.329 57.8048 41.1485 58.8788 43.3456 58.8788C44.1146 58.8788 46.0187 58.8787 47.6298 57.8418C49.1311 58.2862 50.779 58.1751 52.2437 57.5085C53.6351 56.879 54.8069 55.805 55.6491 54.4348C57.0405 54.5459 58.5052 54.2496 59.8601 53.583C61.1417 52.9164 62.167 51.9906 62.8628 50.8426C64.181 50.7685 65.4992 50.2871 66.671 49.3612C68.4286 47.991 69.4173 45.9912 69.4173 43.9173L72.4199 42.2508C73.9213 43.8803 76.0451 44.8432 78.2421 44.8432H83.3319C84.9065 44.8432 86.1515 43.547 86.1515 41.9916V6.84712C86.2613 5.88426 85.7853 4.99545 85.0529 4.47699ZM80.5856 39.103H78.352C77.3633 39.103 76.4845 38.4735 76.1183 37.5476L68.7948 17.846C68.5751 17.2534 68.6117 16.5868 68.868 15.9943C69.1243 15.4018 69.6004 14.9574 70.2229 14.7352L80.5856 10.9208V39.103ZM62.7895 45.1024C62.7529 45.0654 62.7529 45.0654 62.7163 45.0283C61.6544 44.1766 56.711 39.103 52.5732 34.7702C52.0606 34.2147 51.3282 33.8814 50.5959 33.8814C49.8269 33.8443 49.1312 34.1406 48.5819 34.6961C48.0327 35.2145 47.7397 35.9552 47.7031 36.6959C47.6665 37.4365 47.9594 38.1772 48.5087 38.7327C49.2044 39.4363 54.8435 45.3987 57.7729 48.2132C57.6631 48.3243 57.5532 48.3984 57.4067 48.4354C56.711 48.7687 56.0885 48.7317 55.9054 48.6576L55.8688 48.6206C55.8322 48.5835 55.7956 48.5835 55.7956 48.5465C53.7816 46.917 48.5819 41.362 47.4101 40.0659C46.3482 38.9178 44.554 38.8438 43.4188 39.8807C42.8696 40.3992 42.54 41.1028 42.5034 41.8805C42.4668 42.6582 42.7231 43.3618 43.2357 43.9544C43.2723 43.9914 47.7763 48.8798 50.7423 51.6943C50.5592 51.9535 50.3029 52.1387 50.0466 52.2498C49.6438 52.435 49.241 52.3609 48.8016 52.0276C46.3482 49.9167 41.4049 44.5839 40.4528 43.547C39.9402 42.9915 39.2444 42.6582 38.4754 42.6212C37.7065 42.5841 37.0108 42.8804 36.4249 43.3989C35.8756 43.9173 35.5461 44.621 35.5094 45.3987C35.4728 46.1764 35.7657 46.88 36.2784 47.4355C37.0107 48.2132 38.9881 50.3611 41.0387 52.472C40.5993 52.2868 40.1965 52.1017 39.9035 51.8795C38.6952 51.0647 31.0787 45.3246 24.5242 39.7696C23.5355 38.9549 21.4849 37.3625 19.1048 35.5478C18.2992 34.9183 17.4936 34.3258 16.8345 33.8443L22.8032 17.7349C24.3411 17.6608 26.2086 17.4756 28.4423 17.2905C28.8817 17.2534 29.2845 17.2164 29.7239 17.1794C27.9296 19.5125 26.3917 22.364 26.7212 25.1786C26.9409 27.1043 27.9662 28.6967 29.6872 29.7707C32.8363 31.7705 38.4389 30.4002 41.4781 26.9932C42.7597 26.771 43.7118 26.4377 44.6638 26.0303C46.6412 27.882 49.1678 29.9558 51.8042 32.1778C56.4913 36.0663 62.3135 40.9176 63.7049 43.3989C63.8148 43.584 64.1077 44.1396 63.3022 44.7691C63.0824 44.9913 62.8994 45.0654 62.7895 45.1024ZM45.1765 19.7717C44.7371 19.7717 44.2611 19.8828 43.8216 20.105C42.064 21.0679 41.4415 21.3641 39.6472 21.5493C38.7684 21.6233 37.9994 22.1048 37.5234 22.8825C36.3883 24.6971 33.2392 25.3267 32.6899 24.9934C32.3603 24.7712 32.3603 24.6601 32.3603 24.586C32.2505 23.6232 33.4222 21.3641 35.839 18.8829C41.6612 12.9946 45.5793 11.8836 50.779 14.6241C55.8322 17.2534 60.8854 18.8459 63.3388 19.5495C63.3754 19.6236 63.412 19.7347 63.412 19.8087L69.8201 37.1032L67.147 38.5845C64.5472 35.4367 59.8601 31.5483 55.3195 27.7709C52.0972 25.0675 49.0213 22.5122 47.0806 20.5494C46.6412 20.068 45.9088 19.7717 45.1765 19.7717ZM18.0795 14.3278L10.756 34.0295C10.4264 34.9553 9.511 35.5849 8.52233 35.5849H6.28867V7.40262L16.6514 11.2171C17.2373 11.4393 17.75 11.8836 18.0063 12.4761C18.2992 13.0687 18.2992 13.6982 18.0795 14.3278Z" fill="#424753"/>
</svg>
