<svg xmlns="http://www.w3.org/2000/svg" width="174.509" height="30.817" viewBox="0 0 174.509 30.817">
  <g id="Group_4078" data-name="Group 4078" transform="translate(-257.587 -262.353)">
    <path id="Path_6911" data-name="Path 6911" d="M304.522,269.06H287.611l.136-1.069a.108.108,0,0,0-.158-.109l-3.923,2.11a.108.108,0,0,0-.006.187l3.385,2.11a.108.108,0,0,0,.164-.078l.136-1.066h16.384l-.73,4.621h-5.744a1.436,1.436,0,0,0-1.362,1.172l-2.284,14.146h-4.621s2.243-13.832,2.243-13.9a1.382,1.382,0,0,0-1.358-1.413l-2.684,0a4.671,4.671,0,0,1-4.852-5.024c.355-5.331-2.043-8.387-6.578-8.387H259.987a1.386,1.386,0,0,0-1.369,1.173s-1.022,6.513-1.025,6.53a.9.9,0,0,0,.01.272.623.623,0,0,0,.021.086.838.838,0,0,0,.086.217,1.07,1.07,0,0,0,.1.152,1.262,1.262,0,0,0,.134.134,1,1,0,0,0,.638.227h5.231s-3.284,20.5-3.287,20.531v0a1.386,1.386,0,0,0,1.381,1.492s6.1-.009,6.156-.016a1.382,1.382,0,0,0,1.2-1.152l3.338-20.858h2.306a1.823,1.823,0,0,0,1.7,1.062,2.489,2.489,0,0,0,2.4-2.127,1.832,1.832,0,0,0-1.855-2.127,2.474,2.474,0,0,0-2.008,1.107h-3.123a1.433,1.433,0,0,0-1.362,1.175l-3.339,20.848H262.7l3.27-20.42a1.387,1.387,0,0,0-1.368-1.6h-4.773l.731-4.621h14.876c4.318,0,4.99,3.525,4.794,6.482a6.415,6.415,0,0,0,6.637,6.93h2.171l-2.216,13.708a.341.341,0,0,0-.007.059,1.384,1.384,0,0,0,1.358,1.551l6.009,0A1.436,1.436,0,0,0,295.546,292l2.284-14.146h5.751a1.433,1.433,0,0,0,1.362-1.175s.865-5.482.948-6.013v-.007a1.387,1.387,0,0,0-1.368-1.6" fill="#0f6ef4"/>
    <g id="Group_4077" data-name="Group 4077" transform="translate(313.693 273.285)">
      <path id="Path_6912" data-name="Path 6912" d="M399.669,288.369H386.96a.489.489,0,0,0-.464.4l-.421,2.533a.328.328,0,0,0,.332.4h4.075a.329.329,0,0,1,.332.4l-2.152,12.95a.329.329,0,0,0,.332.4h2.966a.489.489,0,0,0,.464-.4l2.152-12.95a.489.489,0,0,1,.464-.4h4.077a.489.489,0,0,0,.464-.4l.421-2.533a.328.328,0,0,0-.332-.4" transform="translate(-386.069 -287.94)" fill="#22262c"/>
      <path id="Path_6913" data-name="Path 6913" d="M436.13,288.376h-2.585a.5.5,0,0,0-.407.238L423.4,304.888a.35.35,0,0,0,.271.56h3.272a.486.486,0,0,0,.415-.255l1.738-3.111a.5.5,0,0,1,.415-.255h6.095a.322.322,0,0,1,.322.246l.754,3.128a.331.331,0,0,0,.331.246h3.365a.477.477,0,0,0,.458-.56l-4.374-16.275a.331.331,0,0,0-.331-.238m-1.593,10.274h-3a.345.345,0,0,1-.289-.543l2.128-3.823c.195-.339.669-.339.746,0l.873,3.814a.479.479,0,0,1-.458.551" transform="translate(-407.063 -287.944)" fill="#22262c"/>
      <path id="Path_6914" data-name="Path 6914" d="M495.45,288.369h-3.814a.47.47,0,0,0-.311.126l-6.861,6.228c-.29.264-.7.089-.643-.272l.945-5.684a.329.329,0,0,0-.332-.4h-2.965a.489.489,0,0,0-.465.4l-2.7,16.278a.328.328,0,0,0,.332.4H481.6a.488.488,0,0,0,.464-.4l1.1-6.628c.061-.369.549-.539.743-.259l4.938,7.146a.332.332,0,0,0,.279.139h4.18a.453.453,0,0,0,.406-.664l-6.038-8.2a.413.413,0,0,1,.1-.542l7.856-6.994c.284-.253.175-.673-.175-.673" transform="translate(-438.021 -287.94)" fill="#22262c"/>
      <path id="Path_6915" data-name="Path 6915" d="M543.394,288.369h-10.8a.489.489,0,0,0-.464.4l-2.7,16.278a.329.329,0,0,0,.332.4h11.237a.489.489,0,0,0,.464-.4l.445-2.676a.329.329,0,0,0-.332-.4h-7.476a.328.328,0,0,1-.332-.4l.445-2.677a.489.489,0,0,1,.464-.4h6.607a.489.489,0,0,0,.464-.4l.445-2.677a.328.328,0,0,0-.332-.4h-6.607a.328.328,0,0,1-.331-.4l.4-2.386a.489.489,0,0,1,.464-.4h7.042a.488.488,0,0,0,.464-.4l.445-2.677a.328.328,0,0,0-.332-.4" transform="translate(-466.819 -287.94)" fill="#22262c"/>
      <path id="Path_6916" data-name="Path 6916" d="M590.368,288.369H577.659a.489.489,0,0,0-.464.4l-.421,2.533a.329.329,0,0,0,.332.4h4.075a.329.329,0,0,1,.332.4l-2.151,12.95a.329.329,0,0,0,.332.4h2.966a.489.489,0,0,0,.464-.4l2.151-12.95a.489.489,0,0,1,.464-.4h4.077a.488.488,0,0,0,.464-.4l.421-2.533a.328.328,0,0,0-.332-.4" transform="translate(-493.493 -287.94)" fill="#22262c"/>
      <path id="Path_6917" data-name="Path 6917" d="M625.182,287.386a10.547,10.547,0,0,0-10.7,8.968c-.916,5.476,2.39,8.968,7.714,8.968a10.555,10.555,0,0,0,10.706-8.968c.916-5.476-2.39-8.968-7.722-8.968M629,296.354a6.3,6.3,0,0,1-6.214,5.493c-3.213,0-4.925-2.314-4.4-5.493a6.31,6.31,0,0,1,6.222-5.5c3.213,0,4.925,2.314,4.391,5.5" transform="translate(-514.653 -287.386)" fill="#22262c"/>
    </g>
  </g>
</svg>
