<svg xmlns="http://www.w3.org/2000/svg" width="147.73" height="126.21" viewBox="0 0 147.73 126.21">
  <g id="Group_4076" data-name="Group 4076" transform="translate(-201.352 -110.656)">
    <g id="Group_4075" data-name="Group 4075" transform="translate(201.352 215.933)">
      <path id="Path_6904" data-name="Path 6904" d="M217.223,424.081H202.391a.571.571,0,0,0-.542.464l-.491,2.955a.384.384,0,0,0,.387.465H206.5a.383.383,0,0,1,.387.464l-2.511,15.113a.383.383,0,0,0,.387.464h3.461a.571.571,0,0,0,.542-.464l2.511-15.113a.57.57,0,0,1,.541-.464h4.758a.571.571,0,0,0,.542-.465l.491-2.955A.383.383,0,0,0,217.223,424.081Z" transform="translate(-201.352 -423.58)" fill="#22262c"/>
      <path id="Path_6905" data-name="Path 6905" d="M272.558,424.092h-3.017a.578.578,0,0,0-.475.277L257.7,443.362a.409.409,0,0,0,.317.653h3.818a.567.567,0,0,0,.485-.3l2.028-3.63a.58.58,0,0,1,.485-.3h7.113a.375.375,0,0,1,.376.287l.88,3.65a.386.386,0,0,0,.386.287h3.927a.557.557,0,0,0,.534-.653l-5.1-18.993A.387.387,0,0,0,272.558,424.092Zm-1.86,11.989h-3.5a.4.4,0,0,1-.336-.633l2.483-4.462c.227-.4.781-.4.87,0l1.019,4.452A.56.56,0,0,1,270.7,436.081Z" transform="translate(-238.635 -423.587)" fill="#22262c"/>
      <path id="Path_6906" data-name="Path 6906" d="M360.635,424.081h-4.45a.549.549,0,0,0-.364.147l-8.006,7.268c-.339.308-.821.1-.751-.317l1.1-6.633a.383.383,0,0,0-.387-.464h-3.461a.571.571,0,0,0-.541.464l-3.156,19a.383.383,0,0,0,.387.464h3.461a.571.571,0,0,0,.542-.464l1.285-7.736c.072-.431.641-.629.867-.3l5.762,8.34a.388.388,0,0,0,.326.162h4.878a.529.529,0,0,0,.474-.776l-7.046-9.571a.482.482,0,0,1,.114-.632l9.168-8.162C361.172,424.571,361.044,424.081,360.635,424.081Z" transform="translate(-293.615 -423.58)" fill="#22262c"/>
      <path id="Path_6907" data-name="Path 6907" d="M434.122,424.081H421.514a.57.57,0,0,0-.541.464l-3.156,19a.383.383,0,0,0,.387.464h13.114a.571.571,0,0,0,.542-.464l.519-3.123a.384.384,0,0,0-.387-.465h-8.724a.383.383,0,0,1-.387-.464l.519-3.125a.571.571,0,0,1,.541-.464h7.711a.571.571,0,0,0,.542-.464l.519-3.125a.383.383,0,0,0-.387-.464h-7.71a.383.383,0,0,1-.387-.464l.463-2.785a.57.57,0,0,1,.541-.464h8.217a.571.571,0,0,0,.542-.464l.519-3.124A.383.383,0,0,0,434.122,424.081Z" transform="translate(-344.758 -423.58)" fill="#22262c"/>
      <path id="Path_6908" data-name="Path 6908" d="M505.181,424.081H490.349a.57.57,0,0,0-.541.464l-.491,2.955a.384.384,0,0,0,.387.465h4.755a.383.383,0,0,1,.387.464l-2.511,15.113a.383.383,0,0,0,.387.464h3.461a.571.571,0,0,0,.541-.464l2.511-15.113a.571.571,0,0,1,.542-.464h4.758a.571.571,0,0,0,.541-.465l.491-2.955A.383.383,0,0,0,505.181,424.081Z" transform="translate(-392.127 -423.58)" fill="#22262c"/>
      <path id="Path_6909" data-name="Path 6909" d="M558.693,422.6a12.309,12.309,0,0,0-12.484,10.466c-1.068,6.39,2.79,10.466,9,10.466A12.319,12.319,0,0,0,567.7,433.063C568.773,426.673,564.915,422.6,558.693,422.6Zm4.452,10.466a7.347,7.347,0,0,1-7.251,6.41c-3.749,0-5.747-2.7-5.134-6.41a7.365,7.365,0,0,1,7.261-6.42C561.77,426.643,563.768,429.343,563.145,433.063Z" transform="translate(-429.705 -422.597)" fill="#22262c"/>
    </g>
    <path id="Path_6910" data-name="Path 6910" d="M362.81,129.91H314.263l.391-3.069a.31.31,0,0,0-.454-.312l-11.262,6.057a.31.31,0,0,0-.017.536l9.718,6.057a.31.31,0,0,0,.471-.224l.39-3.059h47.035l-2.1,13.265H341.947a4.121,4.121,0,0,0-3.908,3.363l-6.558,40.608H318.216s6.44-39.708,6.44-39.905a3.971,3.971,0,0,0-3.9-4.056l-7.706-.01c-8.349,0-14.463-6.331-13.928-14.423,1.019-15.3-5.866-24.078-18.884-24.078l-45.279,0a3.977,3.977,0,0,0-3.93,3.366s-2.934,18.7-2.944,18.747a2.563,2.563,0,0,0,.03.781,1.813,1.813,0,0,0,.059.247,2.416,2.416,0,0,0,.247.623,3.016,3.016,0,0,0,.287.435,3.534,3.534,0,0,0,.386.386,2.868,2.868,0,0,0,1.83.653h15.016s-9.427,58.839-9.437,58.938v.01a3.982,3.982,0,0,0,3.967,4.283s17.519-.025,17.672-.046a3.966,3.966,0,0,0,3.452-3.308l9.581-59.877H277.8a5.236,5.236,0,0,0,4.892,3.05,7.146,7.146,0,0,0,6.884-6.106,5.26,5.26,0,0,0-5.327-6.106,7.1,7.1,0,0,0-5.763,3.177h-8.965a4.113,4.113,0,0,0-3.907,3.373l-9.585,59.848H242.757l9.388-58.622a3.982,3.982,0,0,0-3.927-4.6h-13.7l2.1-13.265h42.7c12.4,0,14.324,10.12,13.761,18.608-.742,11.158,7.627,19.893,19.052,19.893h6.232L312,194.5a.987.987,0,0,0-.02.168,3.975,3.975,0,0,0,3.9,4.452l17.252.01a4.12,4.12,0,0,0,3.907-3.373l6.559-40.608h16.51a4.112,4.112,0,0,0,3.908-3.373s2.483-15.739,2.721-17.262v-.02A3.98,3.98,0,0,0,362.81,129.91Z" transform="translate(-17.701)" fill="#0f6ef4"/>
  </g>
</svg>
